<svg xmlns="http://www.w3.org/2000/svg" width="170.311" height="56.635" viewBox="0 0 170.311 56.635">
  <g id="Layer_1-2-3" transform="translate(-432 -136.8)">
    <g id="Layer_2-2-7" transform="translate(497.598 151.196)">
      <g id="Layer_1-2-2-7">
        <path id="Path_10891" data-name="Path 10891" d="M529.347,185.731h2.92a.87.87,0,0,0,.747-.679h0v-7.606h6.655v7.538a.7.7,0,0,0,.747.679h3.124a.87.87,0,0,0,.747-.679V173.847l-4.618-14.8a.584.584,0,0,0-.543-.543h-5.365c-.272,0-.543.136-.543.407v.136l-4.618,14.8V185.12c.068.34.475.543.747.611Zm4.074-12.427,2.92-9.982,2.92,9.982Z" transform="translate(-528.6 -158.16)" fill="#fff"/>
        <path id="Path_10892" data-name="Path 10892" d="M587.14,158.5H573.422a.791.791,0,0,0-.679.747h0v2.988a.7.7,0,0,0,.747.679h9.032L572.2,181.588v3.531a.74.74,0,0,0,.679.747h14.26a.8.8,0,0,0,.747-.747v-2.988a.74.74,0,0,0-.747-.679H577.7l10.186-18.81v-3.327C587.954,158.907,587.615,158.568,587.14,158.5Z" transform="translate(-542.592 -158.16)" fill="#fff"/>
        <path id="Path_10893" data-name="Path 10893" d="M623.785,158h-.543a7.584,7.584,0,0,0-7.741,7.4v12.9a7.741,7.741,0,0,0,7.741,7.538h.543a7.585,7.585,0,0,0,7.742-7.4V165.334A7.617,7.617,0,0,0,623.785,158Zm3.124,7.538v12.9a3.1,3.1,0,0,1-3.056,3.124h-.611a3.34,3.34,0,0,1-3.328-3.124v-12.9a3.1,3.1,0,0,1,3.056-3.124h.679a2.931,2.931,0,0,1,3.328,2.513,1.878,1.878,0,0,0-.068.611Z" transform="translate(-556.489 -158)" fill="#fff"/>
        <path id="Path_10894" data-name="Path 10894" d="M674.451,158.5H670.58c-.407,0-.543.136-.543.407l-2.92,8.828-2.92-8.828c0-.136-.407-.407-.543-.407h-4.007a.8.8,0,0,0-.747.747V185.12a.754.754,0,0,0,.747.747h3.124a.74.74,0,0,0,.747-.679V168.482l1.63,4.618c.136.136.407.407.543.407h2.58c.136,0,.543-.2.543-.407l1.63-4.618V185.12a.815.815,0,0,0,.815.747h3.124a.74.74,0,0,0,.747-.679V159.247A.791.791,0,0,0,674.451,158.5Z" transform="translate(-570.417 -158.16)" fill="#fff"/>
      </g>
    </g>
    <path id="Path_10895" data-name="Path 10895" d="M475.189,161.722v-5.636l4.957-3.735v15.89Zm-37.96,7.945-1.63.951v4.821l-2.513,2.241v-12.9Zm18.946,15.143,2.648,1.562,3.939-2.309,3.327,2.716-9.575,5.5-4.957-2.92Zm-11.68-9.032v-1.426l9.914,4.889v4.55l.883.475-4.686,4.618-7.673-4.414-.815-7.334Zm-1.086-4.55v3.939l-3.4,1.969-3.4-1.969v-3.939l3.4-1.969Zm10.39-24.854-3.6-2.105-7.741,4.482v2.105l-7.877-.136,22.07-12.767,1.494.815ZM443,169.8l4.074-9.235L450.2,162.4l1.969-1.154,4.482,16.162-1.7.951-10.526-5.093v-2.58Zm13.921-12.631-6.723,3.871-6.723-3.871v-7.809l6.723-3.871,6.723,3.871Zm-10.661,2.784-4.074,9.235-2.105-1.222-1.834,1.087-5.161-6.044v-11.34l9.371.2v5.84Zm17.045,19.286,6.859-3.735,2.716,1.562,2.648-1.562,4.21,3.4-12.563,7.266-3.8-3.056Zm11.748-4.686-2.105,1.29-2.173-1.222v-2.513l2.173-1.29,2.105,1.29Zm-9.507-11.476-5.229,13.785-1.426-.815-1.29.679-4.55-16.094,4.957-2.852v-3.735l5.84,2.241v5.772Zm.951.543,3.124,1.833,1.562-.883,1.222,5.433-2.648,1.494v3.124l-6.859,3.735-1.7-.951ZM465,161.586v-5.3l4.618-2.648,4.618,2.648v5.3l-4.618,2.648ZM455.5,179.242l3.4-1.969,3.4,1.969v3.939l-3.4,1.969-3.4-1.969Zm17.86-9.371-1.29-5.908,2.445-1.426,5.568,7.47v7.877l-4.006-3.26v-3.192Zm1.154-14.6-4.482-2.648-1.019-7.47,10.729,6.18Zm-10.186.136-6.315-2.445v-4.21l-3.26-1.9,4.21-7.47,8.828,5.093,1.154,8.285Zm-27.978,20.847,3.735,2.105,1.154-.679.679,6.044-8.556-4.957ZM456.582,136.8l-24.515,14.193H432V179.31L456.311,193.3l.272.136L481.1,179.242h.068V150.925Z" transform="translate(0 0)" fill="#fff"/>
  </g>
</svg>
